<?xml version="1.0" standalone="no"?>
<!DOCTYPE svg PUBLIC "-//W3C//DTD SVG 20010904//EN"
 "http://www.w3.org/TR/2001/REC-SVG-20010904/DTD/svg10.dtd">
<svg version="1.0" xmlns="http://www.w3.org/2000/svg"
 width="656.000000pt" height="656.000000pt" viewBox="0 0 656.000000 656.000000"
 preserveAspectRatio="xMidYMid meet">
<metadata>
Created by potrace 1.14, written by Peter Selinger 2001-2017
</metadata>
<g transform="translate(0.000000,656.000000) scale(0.100000,-0.100000)"
fill="#000000" stroke="none">
<path d="M3265 6397 c-11 -7 -43 -27 -72 -44 -30 -18 -58 -33 -63 -33 -6 0
-10 -4 -10 -10 0 -5 -4 -10 -9 -10 -13 0 -184 -102 -193 -115 -4 -5 -8 -6 -8
-2 0 5 -12 -1 -26 -12 -15 -12 -31 -21 -36 -21 -5 0 -14 -5 -21 -10 -11 -10
-328 -200 -333 -200 -3 0 -160 -94 -184 -110 -8 -6 -22 -13 -30 -17 -16 -8
-219 -128 -236 -140 -10 -8 -30 -20 -88 -52 -17 -10 -78 -46 -134 -80 -57 -33
-106 -61 -108 -61 -3 0 -10 -5 -17 -10 -7 -6 -84 -53 -172 -105 -88 -51 -164
-97 -170 -102 -5 -5 -17 -12 -26 -15 -9 -4 -65 -36 -124 -72 -59 -36 -109 -66
-112 -66 -2 0 -29 -16 -59 -35 -30 -19 -59 -35 -64 -35 -6 0 -10 -4 -10 -10 0
-5 -4 -10 -10 -10 -5 0 -56 -28 -112 -61 -57 -34 -116 -70 -133 -79 -98 -57
-95 -54 -96 -90 -2 -137 -1 -1921 2 -1924 5 -3 246 -146 274 -162 11 -6 45
-26 75 -44 30 -18 69 -41 85 -50 17 -9 100 -59 185 -110 85 -51 169 -101 185
-110 17 -9 77 -45 135 -80 58 -34 119 -70 135 -80 29 -16 238 -141 280 -167
11 -7 31 -18 45 -25 14 -6 32 -17 40 -24 8 -6 31 -20 50 -31 54 -29 279 -162
335 -198 28 -18 55 -34 60 -36 6 -2 53 -29 105 -61 78 -46 436 -258 562 -333
18 -10 53 -31 78 -46 l46 -27 74 42 c313 177 688 390 705 401 11 7 22 12 25
11 3 0 19 9 35 20 17 12 51 33 78 48 115 64 144 81 179 103 21 12 40 23 43 23
2 0 39 20 81 45 41 25 79 45 84 45 5 0 10 3 12 8 2 4 26 18 53 32 28 14 52 28
55 31 3 3 34 21 70 40 36 19 67 37 70 40 3 3 81 48 174 100 92 52 180 101 195
109 148 85 210 120 214 120 1 0 2 -129 1 -287 0 -271 -1 -287 -20 -300 -10 -8
-158 -97 -329 -199 -170 -101 -317 -188 -325 -193 -17 -11 -115 -69 -145 -85
-11 -6 -38 -23 -60 -37 -22 -14 -74 -46 -115 -70 -41 -24 -83 -49 -95 -56 -11
-7 -31 -18 -45 -25 -14 -7 -29 -17 -35 -21 -13 -11 -264 -161 -390 -233 -55
-32 -102 -60 -105 -64 -3 -4 -10 -9 -16 -11 -5 -2 -74 -42 -152 -89 -78 -47
-181 -108 -229 -137 l-87 -52 -36 21 c-19 11 -51 31 -70 43 -37 23 -174 106
-225 135 -16 10 -82 50 -145 89 -63 39 -122 74 -130 78 -8 3 -34 19 -57 35
-23 15 -46 28 -52 28 -6 0 -11 5 -11 10 0 6 -5 10 -11 10 -6 0 -48 24 -95 52
-138 86 -158 98 -174 105 -8 4 -17 9 -20 12 -3 3 -16 12 -30 20 -14 8 -128 77
-255 154 -126 77 -243 147 -260 157 -16 9 -84 50 -150 90 -66 40 -133 80 -148
89 -35 20 -48 27 -117 72 -30 20 -62 39 -70 42 -8 4 -28 15 -45 26 -16 10
-147 89 -290 176 -143 86 -266 162 -272 167 -10 8 -13 3 -14 -18 -2 -114 -1
-675 2 -678 12 -11 283 -166 290 -166 5 0 9 -5 9 -11 0 -5 4 -8 9 -5 5 3 14
-1 21 -9 7 -8 19 -15 26 -15 8 0 14 -4 14 -10 0 -5 4 -10 9 -10 8 0 102 -53
269 -153 26 -15 61 -35 77 -43 17 -8 63 -35 103 -59 41 -25 78 -45 83 -45 5 0
9 -4 9 -10 0 -5 4 -10 9 -10 5 0 30 -12 56 -27 26 -16 64 -37 84 -49 20 -11
92 -53 159 -92 68 -40 128 -72 133 -72 5 0 9 -4 9 -10 0 -5 5 -10 11 -10 6 0
30 -13 54 -30 24 -16 46 -30 50 -30 3 0 45 -23 93 -51 48 -29 103 -61 122 -72
19 -11 114 -65 210 -122 183 -107 542 -315 597 -346 17 -10 50 -29 72 -43 22
-15 44 -26 48 -26 3 0 14 -7 24 -16 17 -15 23 -13 91 25 40 23 80 46 88 51 66
41 224 130 231 130 5 0 9 5 9 10 0 6 4 10 9 10 7 0 344 193 526 301 16 10 41
24 55 32 14 7 161 93 328 190 167 97 308 177 313 177 5 0 9 5 9 10 0 6 4 10
10 10 5 0 43 20 83 45 41 25 77 45 80 45 5 0 137 78 187 110 8 6 22 13 30 17
8 4 125 71 259 150 134 79 246 143 247 143 2 0 27 15 56 33 29 19 61 36 71 40
9 3 17 12 18 19 0 7 2 448 2 980 l2 966 -47 -26 c-26 -15 -113 -65 -194 -112
-81 -47 -165 -96 -187 -108 -23 -13 -149 -87 -281 -165 -133 -77 -252 -147
-266 -154 -14 -8 -47 -28 -75 -44 -27 -17 -58 -33 -67 -36 -10 -3 -18 -9 -18
-14 0 -5 -4 -9 -9 -9 -4 0 -93 -49 -196 -110 -103 -60 -192 -110 -196 -110 -5
0 -9 -4 -9 -9 0 -5 -12 -14 -27 -20 -35 -13 -87 -44 -91 -53 -2 -5 -8 -8 -13
-8 -5 0 -113 -61 -239 -135 -127 -74 -232 -135 -233 -135 -1 0 -2 135 -2 299
0 198 4 304 11 311 12 12 153 100 161 100 2 0 28 15 56 34 90 58 359 216 368
216 5 0 9 5 9 10 0 6 4 10 9 10 13 0 235 132 239 142 2 4 8 8 12 8 5 0 122 68
260 150 138 83 256 150 261 150 5 0 9 4 9 8 0 5 18 17 40 27 22 10 40 21 40
24 0 4 12 12 28 19 15 6 45 23 67 37 22 14 48 28 58 32 9 3 17 9 17 14 0 5 4
9 9 9 8 0 289 164 341 199 14 10 51 32 83 50 31 18 61 40 65 49 6 13 8 628 3
662 -1 3 -16 14 -33 24 -124 71 -332 194 -375 222 -29 19 -55 34 -58 34 -3 0
-31 16 -61 35 -30 19 -57 35 -60 35 -3 0 -25 14 -49 30 -24 17 -46 30 -49 30
-4 0 -42 23 -86 50 -44 28 -82 50 -84 50 -2 0 -53 29 -112 65 -141 85 -122 74
-254 151 -63 37 -133 80 -155 95 -22 14 -43 27 -48 28 -8 1 -49 25 -89 52 -15
11 -29 19 -32 19 -3 0 -83 47 -179 105 -96 58 -180 105 -185 105 -6 0 -12 4
-14 8 -1 5 -34 26 -71 48 -38 21 -82 47 -98 57 -64 38 -90 53 -146 87 -32 19
-67 39 -78 46 -68 38 -305 179 -327 195 -31 22 -27 21 -53 6z"/>
</g>
</svg>
