<svg width="25" height="25" viewBox="0 0 25 25" fill="none" xmlns="http://www.w3.org/2000/svg">
<path fill-rule="evenodd" clip-rule="evenodd" d="M2.3 12.5C2.3 18.1219 6.87807 22.7 12.5 22.7C18.1219 22.7 22.7 18.1219 22.7 12.5C22.7 6.87807 18.1219 2.3 12.5 2.3C6.87807 2.3 2.3 6.87807 2.3 12.5ZM0 12.5C0 19.3922 5.60781 25 12.5 25C19.3922 25 25 19.3922 25 12.5C25 5.60781 19.3922 0 12.5 0C5.60781 0 0 5.60781 0 12.5Z" fill="black"/>
<path fill-rule="evenodd" clip-rule="evenodd" d="M12.5001 6.10001C13.1352 6.10001 13.6501 6.61488 13.6501 7.25001V12.225H18.6251C19.2602 12.225 19.7751 12.7399 19.7751 13.375C19.7751 14.0101 19.2602 14.525 18.6251 14.525H11.3501V7.25001C11.3501 6.61488 11.865 6.10001 12.5001 6.10001Z" fill="black"/>
</svg>
