<svg width="25" height="25" viewBox="0 0 25 25" fill="none" xmlns="http://www.w3.org/2000/svg">
<path fill-rule="evenodd" clip-rule="evenodd" d="M2.3 12.5C2.3 18.1219 6.87807 22.7 12.5 22.7C18.1219 22.7 22.7 18.1219 22.7 12.5C22.7 6.87807 18.1219 2.3 12.5 2.3C6.87807 2.3 2.3 6.87807 2.3 12.5ZM0 12.5C0 19.3922 5.60781 25 12.5 25C19.3922 25 25 19.3922 25 12.5C25 5.60781 19.3922 0 12.5 0C5.60781 0 0 5.60781 0 12.5Z" fill="black"/>
<path fill-rule="evenodd" clip-rule="evenodd" d="M6.03819 8.01302C6.36892 7.84082 6.76799 7.86693 7.07346 8.08076L12.5 11.8793L17.9265 8.08076C18.232 7.86693 18.6311 7.84082 18.9618 8.01302C19.2925 8.18522 19.5 8.52712 19.5 8.9V16.4646C19.5 17.0169 19.0523 17.4646 18.5 17.4646C17.9477 17.4646 17.5 17.0169 17.5 16.4646V10.8207L13.0735 13.9192C12.7291 14.1603 12.2709 14.1603 11.9265 13.9192L7.5 10.8207V16.4646C7.5 17.0169 7.05228 17.4646 6.5 17.4646C5.94772 17.4646 5.5 17.0169 5.5 16.4646V8.9C5.5 8.52712 5.70746 8.18522 6.03819 8.01302Z" fill="black"/>
</svg>
