<svg width="6" height="6" viewBox="0 0 6 6" fill="none" xmlns="http://www.w3.org/2000/svg">
<path d="M3.67669 3.85626L4.02669 3.50626C4.07383 3.4597 4.13347 3.42783 4.19838 3.41452C4.26328 3.4012 4.33065 3.40702 4.39231 3.43126L4.81888 3.60157C4.88119 3.62686 4.93462 3.67004 4.97244 3.72565C5.01025 3.78126 5.03076 3.84682 5.03138 3.91407V4.69532C5.03101 4.74107 5.0214 4.78627 5.00311 4.8282C4.98481 4.87013 4.95823 4.90793 4.92494 4.93931C4.89166 4.9707 4.85237 4.99502 4.80944 5.01083C4.7665 5.02663 4.72082 5.03358 4.67513 5.03126C1.68606 4.84532 1.08294 2.31407 0.968878 1.34532C0.963583 1.29775 0.968421 1.24959 0.983073 1.20402C0.997725 1.15846 1.02186 1.11651 1.05389 1.08093C1.08592 1.04536 1.12511 1.01698 1.1689 0.997641C1.21269 0.978307 1.26007 0.968463 1.30794 0.968756H2.06263C2.12997 0.968956 2.19572 0.989298 2.25141 1.02717C2.3071 1.06504 2.35018 1.1187 2.37513 1.18126L2.54544 1.60782C2.57048 1.66924 2.57687 1.73667 2.56381 1.8017C2.55075 1.86672 2.51882 1.92646 2.472 1.97344L2.122 2.32344C2.122 2.32344 2.32356 3.68751 3.67669 3.85626Z" fill="white"/>
</svg>
