<?xml version="1.0" encoding="utf-8"?><svg viewBox="0 0 26 28" xmlns="http://www.w3.org/2000/svg" xmlns:xlink="http://www.w3.org/1999/xlink"><style>:root>svg{display:none}:root>svg:target{display:block}</style><svg fill="none" viewBox="0 0 26 28" id="account" xmlns="http://www.w3.org/2000/svg"><path d="M15.82 24.882 13 27.702l-2.82-2.82C4.638 23.602.5 18.632.5 12.702c0-6.9 5.6-12.5 12.5-12.5s12.5 5.6 12.5 12.5c0 5.93-4.137 10.9-9.68 12.18Zm-10.291-7.91c1.835 2.738 4.59 4.48 7.671 4.48 3.08 0 5.836-1.74 7.67-4.48a11.21 11.21 0 0 0-7.67-3.02 11.21 11.21 0 0 0-7.671 3.02ZM13 11.452a3.75 3.75 0 1 0 0-7.5 3.75 3.75 0 0 0 0 7.5Z" fill="#fff"/></svg><svg fill="none" viewBox="0 0 6 5" id="arrow-down" xmlns="http://www.w3.org/2000/svg"><path d="m5.16 1-2 2-2-2" stroke="#000" stroke-width="1.6" stroke-linecap="round"/></svg><svg fill="none" viewBox="0 0 6 5" id="check" xmlns="http://www.w3.org/2000/svg"><path fill-rule="evenodd" clip-rule="evenodd" d="M5.321.617a.5.5 0 0 0-.704.062l-2.138 2.55-1.1-1.277a.5.5 0 0 0-.758.653L2.49 4.772l2.894-3.45a.5.5 0 0 0-.062-.705Z" fill="#fff"/></svg><svg fill="none" viewBox="0 0 20 24" id="location" xmlns="http://www.w3.org/2000/svg"><path d="M10 12c-1.375 0-2.5-1.08-2.5-2.4 0-1.32 1.125-2.4 2.5-2.4s2.5 1.08 2.5 2.4c0 1.32-1.125 2.4-2.5 2.4Zm7.5-2.16c0-4.356-3.313-7.44-7.5-7.44-4.188 0-7.5 3.084-7.5 7.44 0 2.808 2.438 6.528 7.5 10.968 5.063-4.44 7.5-8.16 7.5-10.968ZM10 0c5.25 0 10 3.864 10 9.84 0 3.984-3.337 8.7-10 14.16C3.338 18.54 0 13.824 0 9.84 0 3.864 4.75 0 10 0Z" fill="#0156FF"/></svg><svg fill="none" viewBox="0 0 6 6" id="phone" xmlns="http://www.w3.org/2000/svg"><path d="m3.677 3.856.35-.35a.342.342 0 0 1 .365-.075l.427.17a.34.34 0 0 1 .212.313v.781a.34.34 0 0 1-.356.336C1.686 4.845 1.083 2.314.97 1.345A.34.34 0 0 1 1.308.97h.755a.337.337 0 0 1 .312.212l.17.427a.338.338 0 0 1-.073.365l-.35.35s.202 1.365 1.555 1.533Z" fill="#fff"/></svg><svg fill="none" viewBox="0 0 26 27" id="saving" xmlns="http://www.w3.org/2000/svg"><path d="M25.205 1.229a.786.786 0 0 0-1.484.518c1.208 3.471-1.19 6.064-3.017 7.452l-.738-1.058c-.249-.355-.804-.65-1.235-.655l-4.145.018a2.81 2.81 0 0 0-1.426.44L.948 16.505a1.313 1.313 0 0 0-.321 1.826l5.55 7.94c.416.591 1.08.52 1.673.107l12.212-8.565c.35-.248.756-.784.9-1.193l1.297-4.089c.143-.408.056-1.03-.192-1.386l-.45-.644c2.454-1.881 5.002-5.206 3.588-9.273Zm-5.683 12.165a2.09 2.09 0 0 1-2.912-.515 2.098 2.098 0 0 1 .514-2.92 2.09 2.09 0 0 1 2.428.023 8.015 8.015 0 0 1-.642.357.788.788 0 0 0 .337 1.5.788.788 0 0 0 .334-.078c.252-.12.523-.26.805-.429a2.1 2.1 0 0 1-.864 2.062Z" fill="#fff"/></svg><svg fill="none" viewBox="0 0 26 26" id="support" xmlns="http://www.w3.org/2000/svg"><path d="M12.912.86C6.107.86.57 6.398.57 13.203v5.114c0 1.263 1.107 2.291 2.469 2.291h1.234a1.234 1.234 0 0 0 1.234-1.234v-6.347a1.234 1.234 0 0 0-1.234-1.234h-1.12c.685-4.777 4.795-8.463 9.76-8.463 4.963 0 9.073 3.686 9.759 8.463h-1.12a1.234 1.234 0 0 0-1.235 1.234v7.581a2.47 2.47 0 0 1-2.468 2.469H15.38v-1.234h-4.936v3.702h7.405a4.942 4.942 0 0 0 4.936-4.937c1.362 0 2.469-1.028 2.469-2.291v-5.114c0-6.805-5.537-12.341-12.342-12.341Z" fill="#fff"/></svg><svg fill="none" viewBox="0 0 25 25" id="time" xmlns="http://www.w3.org/2000/svg"><path d="M12.5 23.85c-6.257 0-11.35-5.093-11.35-11.35S6.243 1.15 12.5 1.15 23.85 6.243 23.85 12.5 18.757 23.85 12.5 23.85Z" stroke="#0156FF" stroke-width="2.3"/><path d="M12.5 7.25v6.125h6.125" stroke="#0156FF" stroke-width="2.3" stroke-linecap="round"/></svg></svg>