<?xml version="1.0" encoding="utf-8"?><svg viewBox="0 0 25 25" xmlns="http://www.w3.org/2000/svg" xmlns:xlink="http://www.w3.org/1999/xlink"><style>:root>svg{display:none}:root>svg:target{display:block}</style><svg fill="none" viewBox="0 0 20 24" id="location" xmlns="http://www.w3.org/2000/svg"><path d="M10 12c-1.375 0-2.5-1.08-2.5-2.4 0-1.32 1.125-2.4 2.5-2.4s2.5 1.08 2.5 2.4c0 1.32-1.125 2.4-2.5 2.4Zm7.5-2.16c0-4.356-3.313-7.44-7.5-7.44-4.188 0-7.5 3.084-7.5 7.44 0 2.808 2.438 6.528 7.5 10.968 5.063-4.44 7.5-8.16 7.5-10.968ZM10 0c5.25 0 10 3.864 10 9.84 0 3.984-3.337 8.7-10 14.16C3.338 18.54 0 13.824 0 9.84 0 3.864 4.75 0 10 0Z" fill="#0156FF"/></svg><svg fill="none" viewBox="0 0 25 25" id="time" xmlns="http://www.w3.org/2000/svg"><path d="M12.5 23.85c-6.257 0-11.35-5.093-11.35-11.35S6.243 1.15 12.5 1.15 23.85 6.243 23.85 12.5 18.757 23.85 12.5 23.85Z" stroke="#0156FF" stroke-width="2.3"/><path d="M12.5 7.25v6.125h6.125" stroke="#0156FF" stroke-width="2.3" stroke-linecap="round"/></svg></svg>